<svg xmlns:dc="http://purl.org/dc/elements/1.1/" fill="#9ca3af" xmlns:cc="http://creativecommons.org/ns#" xmlns:rdf="http://www.w3.org/1999/02/22-rdf-syntax-ns#" xmlns:svg="http://www.w3.org/2000/svg" xmlns="http://www.w3.org/2000/svg" version="1.1" viewBox="0 0 16.933333 21.1666675" x="0px" y="0px"><g transform="translate(0,-280.06665)"><path d="m 12.259072,287.04138 a 3.6356051,1.2762003 0 0 0 -2.4694806,0.34155 l 0.183875,0.68526 a 0.43146249,0.43146249 0 0 1 -0.11118,0.41639 l 0.2020486,-0.20205 0.242671,0.24268 c 0.233932,0.23393 0.23414,0.63039 0,0.86431 l 0.202049,-0.20204 0.298796,0.29879 a 3.6356051,1.2762003 0 0 0 1.451221,0.10744 3.6356051,1.2762003 0 0 0 3.635268,-1.27644 3.6356051,1.2762003 0 0 0 -3.635268,-1.27589 z m 3.634733,2.0718 c -0.08806,0.0927 -0.197763,0.17904 -0.324453,0.25816 -0.342609,0.21418 -0.821399,0.38759 -1.411132,0.51047 -0.865725,0.18039 -1.871584,0.22715 -2.812108,0.14272 l 1.83073,1.83073 c 0.321524,-0.0296 0.634388,-0.0745 0.928461,-0.13577 0.569424,-0.11865 1.026203,-0.2893 1.330419,-0.47946 0.304216,-0.19017 0.458083,-0.38898 0.458083,-0.5682 z m -7.2454131,0.43189 a 0.43146249,0.43146249 0 0 1 -0.025124,5.4e-4 v 1.12623 c 1.2e-6,0.17922 0.1533327,0.37803 0.4575491,0.5682 0.3042158,0.19016 0.7609964,0.36081 1.33042,0.47946 0.319734,0.0666 0.662249,0.11244 1.013449,0.14165 l -1.8793716,-1.87937 c -0.2045292,0.0524 -0.4216031,0.0386 -0.5778156,-0.11759 z m 7.2454131,1.85478 c -0.08806,0.0927 -0.197763,0.17904 -0.324453,0.25817 -0.342609,0.21418 -0.821399,0.38704 -1.411132,0.50993 -0.18499,0.0386 -0.377723,0.0687 -0.57354,0.0952 l 0.39501,0.39501 a 0.43146249,0.43146249 0 0 1 -0.513139,0.68311 l -1.196254,-0.65852 a 0.43146249,0.43146249 0 0 1 -0.09674,-0.0727 l -0.266191,-0.26619 c -0.535938,-0.0181 -1.064402,-0.075 -1.548503,-0.17586 -0.5897326,-0.12289 -1.0706613,-0.29575 -1.41327,-0.50993 -0.1260948,-0.0788 -0.2347537,-0.16494 -0.3223155,-0.2571 v 1.55759 c 1.1e-6,0.17922 0.1533327,0.37802 0.4575491,0.56819 0.3042158,0.19017 0.7609958,0.36082 1.3304194,0.47947 1.138851,0.23729 2.555214,0.23729 3.694065,0 0.569424,-0.11865 1.026203,-0.2893 1.330419,-0.47947 0.304216,-0.19017 0.458083,-0.38897 0.458083,-0.56819 z m 0,2.28614 c -0.08806,0.0927 -0.197763,0.17958 -0.324453,0.25871 -0.342609,0.21417 -0.821399,0.38705 -1.411132,0.50993 -1.179467,0.24577 -2.619898,0.24577 -3.799365,0 -0.5897336,-0.12288 -1.0706614,-0.29576 -1.4132702,-0.50993 -0.1260947,-0.0788 -0.2347537,-0.16494 -0.3223154,-0.2571 v 1.55759 c 1.1e-6,0.17922 0.1533327,0.37802 0.457549,0.56819 0.3042155,0.19016 0.760996,0.36081 1.3304196,0.47946 1.13885,0.2373 2.555214,0.2373 3.694065,0 0.569424,-0.11865 1.026203,-0.2893 1.330419,-0.47946 0.304216,-0.19017 0.458083,-0.38897 0.458083,-0.56819 z" style="color:#000000;font-style:normal;font-variant:normal;font-weight:normal;font-stretch:normal;font-size:medium;line-height:normal;font-family:sans-serif;font-variant-ligatures:normal;font-variant-position:normal;font-variant-caps:normal;font-variant-numeric:normal;font-variant-alternates:normal;font-feature-settings:normal;text-indent:0;text-align:start;text-decoration:none;text-decoration-line:none;text-decoration-style:solid;text-decoration-color:#000000;letter-spacing:normal;word-spacing:normal;text-transform:none;writing-mode:lr-tb;direction:ltr;text-orientation:mixed;dominant-baseline:auto;baseline-shift:baseline;text-anchor:start;white-space:normal;shape-padding:0;clip-rule:nonzero;display:inline;overflow:visible;visibility:visible;opacity:1;isolation:auto;mix-blend-mode:normal;color-interpolation:sRGB;color-interpolation-filters:linearRGB;solid-color:#000000;solid-opacity:1;vector-effect:none;fill-opacity:1;fill-rule:nonzero;stroke:none;stroke-width:0.25294793;stroke-linecap:butt;stroke-linejoin:miter;stroke-miterlimit:4;stroke-dasharray:none;stroke-dashoffset:0;stroke-opacity:1;paint-order:stroke fill markers;color-rendering:auto;image-rendering:auto;shape-rendering:auto;text-rendering:auto;enable-background:accumulate"/><path d="m 2.9124841,280.59581 -1.8734913,1.87402 0.4388406,0.43885 0.6884614,-0.68899 1.6607524,1.66074 -0.9150976,0.91564 0.4383063,0.43831 0.2223601,-0.22237 3.7560693,3.75554 1.2946066,0.3469 0.1020933,-0.10209 0.547348,0.54734 c 0.070581,0.0705 0.1848997,0.0707 0.2555006,0 l 0.102628,-0.10312 2.8473852,2.84792 1.197324,0.6596 -3.7758456,-3.77586 0.1031616,-0.10369 c 0.0706,-0.0706 0.07062,-0.18382 0,-0.25443 l -0.5478826,-0.54788 0.1020932,-0.10209 -0.3463687,-1.29462 -0.2159457,-0.2154 -0.4671704,0.46717 -0.1940306,-0.19404 0.4671702,-0.46717 -0.3330059,-0.33354 -0.4677045,0.46771 -0.1940306,-0.19404 0.4682391,-0.46716 -0.3330058,-0.33301 -0.468239,0.46663 -0.1940308,-0.19189 0.4682394,-0.46823 -0.3330058,-0.33354 -0.4687738,0.46877 -0.1940306,-0.19404 0.4687736,-0.46877 -0.3335403,-0.333 -0.468239,0.46823 -0.1940305,-0.19402 0.468239,-0.46824 -0.3330057,-0.33354 -0.4687736,0.46877 -0.1934963,-0.19403 0.4687738,-0.4677 -0.3335403,-0.33354 -0.4687738,0.4677 -0.1940305,-0.19189 0.4693083,-0.46931 -0.1844092,-0.18441 0.2228946,-0.22289 -0.4383062,-0.43885 -0.9150976,0.91564 -1.6612869,-1.66076 0.6884613,-0.68846 z" style="" fill-opacity="1" stroke="none"/></g></svg>